HIERARCHY
ROOT Hips
{
 OFFSET 0.000000 0.000000 0.000000
 CHANNELS 6 Xposition Yposition Zposition Yrotation Xrotation Zrotation
 JOINT Chest
 {
  OFFSET 0.000000 9.876139 0.000104
  CHANNELS 3 Yrotation Xrotation Zrotation
  JOINT Chest2
  {
   OFFSET 0.000000 10.876137 -0.000189
   CHANNELS 3 Yrotation Xrotation Zrotation
   JOINT Chest3
   {
    OFFSET 0.000000 9.827065 0.000000
    CHANNELS 3 Yrotation Xrotation Zrotation
    JOINT Chest4
    {
     OFFSET 0.000000 9.827065 0.000000
     CHANNELS 3 Yrotation Xrotation Zrotation
     JOINT Neck
     {
      OFFSET 0.000000 13.837564 0.000000
      CHANNELS 3 Yrotation Xrotation Zrotation
      JOINT Head
      {
       OFFSET 0.000000 9.147059 -0.000448
       CHANNELS 3 Yrotation Xrotation Zrotation
       End Site
       {
        OFFSET 0.000000 17.513050 -0.000234
       }
      }
     }
     JOINT RightCollar
     {
      OFFSET -3.007721 7.720841 0.000000
      CHANNELS 3 Yrotation Xrotation Zrotation
      JOINT RightShoulder
      {
       OFFSET -14.032560 0.000000 0.000000
       CHANNELS 3 Yrotation Xrotation Zrotation
       JOINT RightElbow
       {
        OFFSET -30.066962 0.000000 0.000000
        CHANNELS 3 Yrotation Xrotation Zrotation
        JOINT RightWrist
        {
         OFFSET -24.575761 0.000000 0.000000
         CHANNELS 3 Yrotation Xrotation Zrotation
         JOINT Prop1
         {
          OFFSET -3.508170 -1.002334 -2.004669
          CHANNELS 3 Yrotation Xrotation Zrotation
          End Site
          {
           OFFSET -75.170729 -33.091210 23.052389
          }
         }
         End Site
         {
          OFFSET -18.342718 0.000000 0.000000
         }
        }
       }
      }
     }
     JOINT LeftCollar
     {
      OFFSET 3.007721 7.720841 0.000000
      CHANNELS 3 Yrotation Xrotation Zrotation
      JOINT LeftShoulder
      {
       OFFSET 14.032560 0.000000 0.000000
       CHANNELS 3 Yrotation Xrotation Zrotation
       JOINT LeftElbow
       {
        OFFSET 30.066962 0.000000 0.000000
        CHANNELS 3 Yrotation Xrotation Zrotation
        JOINT LeftWrist
        {
         OFFSET 24.575761 0.000000 0.000000
         CHANNELS 3 Yrotation Xrotation Zrotation
         End Site
         {
          OFFSET 18.342718 0.000000 0.000000
         }
        }
       }
      }
     }
    }
   }
  }
 }
 JOINT RightHip
 {
  OFFSET -8.019680 -0.000509 -0.000052
  CHANNELS 3 Yrotation Xrotation Zrotation
  JOINT RightKnee
  {
   OFFSET 0.000000 -41.754945 0.000049
   CHANNELS 3 Yrotation Xrotation Zrotation
   JOINT RightAnkle
   {
    OFFSET 0.000000 -40.737371 0.000083
    CHANNELS 3 Yrotation Xrotation Zrotation
    JOINT RightToe
    {
     OFFSET 0.000000 -6.498123 14.692914
     CHANNELS 3 Yrotation Xrotation Zrotation
     End Site
     {
      OFFSET 0.000000 -1.503208 6.410318
     }
    }
   }
  }
 }
 JOINT LeftHip
 {
  OFFSET 8.019680 -0.000509 -0.000052
  CHANNELS 3 Yrotation Xrotation Zrotation
  JOINT LeftKnee
  {
   OFFSET 0.000000 -41.754945 0.000049
   CHANNELS 3 Yrotation Xrotation Zrotation
   JOINT LeftAnkle
   {
    OFFSET 0.000000 -40.737371 0.000083
    CHANNELS 3 Yrotation Xrotation Zrotation
    JOINT LeftToe
    {
     OFFSET 0.000000 -6.498123 14.692914
     CHANNELS 3 Yrotation Xrotation Zrotation
     End Site
     {
      OFFSET 0.000000 -1.503208 6.410318
     }
    }
   }
  }
 }
}
MOTION
Frames: 16
Frame Time: 0.016667
-58.052754 81.516756 160.822175 -148.103089 -5.568930 6.678714 -0.130947 12.346595 0.807913 -0.356896 5.523782 0.370770 -0.356896 5.523782 0.370770 -0.270824 4.142624 0.281097 -13.953183 11.766129 3.977294 -28.221794 -12.002117 13.267721 3.475114 7.474157 3.810475 -20.567129 -66.793481 70.227244 25.943006 -4.477277 1.603986 -6.030893 7.685791 -23.426922 -17.247635 4.716395 -89.164467 4.514198 -4.892996 -15.630440 10.960637 -3.841925 -67.744827 -3.328236 6.463613 4.871137 -5.679418 -6.095681 5.009483 -4.268312 -37.623864 -22.312541 -11.719373 32.806348 -10.928275 17.936360 6.975429 3.802159 -0.081530 -1.961877 -0.552068 38.609888 1.452095 16.878478 -25.987970 32.572826 -16.474719 2.327346 -29.346278 2.470904 -0.638276 -0.257033 0.223857
-58.073908 81.377290 160.872419 -147.823342 -4.882962 6.729542 -0.362905 12.282265 0.705293 -0.381796 5.409268 0.327113 -0.381796 5.409268 0.327113 -0.289037 4.056750 0.248540 -13.928169 11.589659 4.138911 -28.282261 -12.282577 13.610865 3.295536 7.901821 3.644713 -24.905955 -67.555940 74.241818 26.438825 -3.331134 2.804033 -6.334677 7.261875 -23.230880 -17.311966 4.514540 -89.200099 4.624447 -4.856159 -15.624286 11.899071 -4.312243 -67.512714 -2.849258 5.807068 4.763643 -5.544624 -6.223451 5.918719 -6.133210 -38.612677 -20.944605 -10.732302 31.118636 -11.426181 17.382017 8.942212 3.936313 0.065384 -1.857134 -0.232860 39.010171 0.499234 16.295827 -26.468623 33.179818 -16.447622 2.090620 -29.740258 2.400484 -0.707019 -0.087388 0.180867
-58.061575 81.260956 160.900788 -147.784697 -4.059154 6.603115 -0.548395 12.163763 0.652219 -0.329838 5.240545 0.330662 -0.329838 5.240545 0.330662 -0.250048 3.930233 0.250658 -13.913344 11.467552 4.251264 -28.329588 -12.475596 13.850689 3.186923 8.424732 3.466431 -23.582416 -67.352384 73.732186 27.233212 -4.018396 2.259484 -6.463084 6.807648 -23.170816 -17.300296 4.407594 -89.143611 4.678759 -4.616867 -15.574185 13.005073 -4.829672 -67.487350 -2.801744 4.832152 4.447336 -5.426682 -6.398556 6.797614 -6.190286 -39.578397 -20.035397 -11.921579 30.449676 -12.687943 17.607980 10.358755 4.037645 0.183735 -2.000249 -0.126520 39.372431 -0.529005 15.738774 -27.184982 33.660357 -16.583664 2.387722 -30.139000 2.276334 -0.756560 0.059646 0.107680
-58.087504 81.226425 160.866362 -147.422480 -4.020781 6.503868 -0.779777 12.347452 0.723221 -0.415425 5.206971 0.320875 -0.415425 5.206971 0.320875 -0.314094 3.905014 0.244039 -13.917562 11.399365 4.330754 -28.386277 -12.575323 14.020698 3.068076 8.494492 3.361787 -21.425249 -66.573900 72.604784 28.154460 -5.046472 1.442331 -6.549895 6.770723 -23.389694 -17.269623 4.283063 -89.127705 4.547756 -4.471430 -15.567554 14.041679 -5.092140 -67.480987 -3.017113 3.435446 4.023548 -5.390132 -6.564589 7.427410 -5.783444 -40.302223 -19.834594 -10.720940 32.376958 -12.198988 15.343501 10.528423 3.664807 0.408909 -2.158552 -0.219108 39.125661 -0.857234 15.624616 -27.491864 34.076160 -16.613136 2.595695 -30.303844 2.161534 -0.861302 0.044902 0.013018
-58.220397 81.295628 160.898971 -147.320110 -4.397589 6.710511 -0.956103 12.455206 0.463664 -0.471758 5.368313 0.332986 -0.471758 5.368313 0.332986 -0.356492 4.025982 0.253711 -13.925024 11.352860 4.381926 -28.432499 -12.642957 14.132744 3.014815 8.232814 3.319041 -21.347530 -65.956845 73.091544 28.896979 -4.963432 1.112050 -6.670645 6.525945 -23.446569 -17.132675 4.055489 -89.351809 4.447682 -4.582312 -15.608146 14.581636 -4.989199 -67.477616 -3.283875 1.669603 3.626232 -5.389180 -6.654254 7.691953 -3.555490 -40.703088 -21.403597 -10.532627 34.712989 -11.769391 14.379486 11.147827 4.430656 -0.163123 -2.848674 -0.791240 38.930827 -0.526183 15.560261 -27.466331 34.413995 -16.529714 2.345474 -30.060639 2.088289 -0.645050 -0.332027 0.081255
-58.371054 81.405259 160.896347 -147.387740 -5.168723 6.767081 -0.937721 12.713600 0.358257 -0.531205 5.626889 0.371505 -0.531205 5.626889 0.371505 -0.401514 4.219850 0.283310 -13.945818 11.314134 4.401482 -28.489554 -12.702106 14.188380 3.002321 8.034711 3.276860 -23.224626 -65.798672 74.868658 29.336297 -4.094844 1.568626 -6.783877 6.197592 -23.375310 -16.956193 3.634401 -89.574696 4.462318 -4.706742 -15.673113 14.450961 -4.813842 -67.550806 -3.444737 -0.187263 3.323465 -5.383703 -6.676691 7.666912 0.365746 -40.233760 -24.011470 -11.948479 36.723077 -11.405665 13.886589 12.276395 5.517222 -0.524764 -3.640142 -1.397096 38.690636 0.139511 15.882655 -27.458163 34.602034 -16.536101 2.484238 -29.719110 1.993843 -0.600752 -0.782138 0.081013
-58.522599 81.491971 160.824706 -146.985788 -5.978573 6.632678 -1.161532 13.025533 0.516386 -0.647531 5.833505 0.420870 -0.647531 5.833505 0.420870 -0.489258 4.374692 0.321579 -13.994549 11.269014 4.352381 -28.574264 -12.785369 14.127897 3.099093 8.275248 3.216054 -25.464226 -66.031477 76.663787 29.709493 -3.187610 2.143610 -6.924223 5.764613 -23.117377 -16.767643 3.186667 -89.636075 4.605063 -4.632404 -15.724450 13.939939 -4.735103 -67.786564 -3.566332 -1.643784 3.087368 -5.398945 -6.652282 7.516259 4.518647 -38.777037 -27.296462 -15.396599 37.831705 -11.153035 14.292968 13.368338 6.455998 -0.657481 -4.000026 -1.837201 37.919938 0.780531 16.339359 -27.556616 34.626164 -16.609047 2.703261 -29.539637 1.889291 -0.477289 -1.010773 0.101398
-58.634242 81.529662 160.742720 -146.762115 -6.239316 6.457872 -1.359450 13.085541 0.686838 -0.660999 5.920897 0.491523 -0.660999 5.920897 0.491523 -0.500084 4.440151 0.374738 -14.066752 11.200156 4.254754 -28.690611 -12.919542 13.992411 3.168944 8.502722 3.148584 -26.416544 -66.015383 77.233640 30.061971 -2.988487 2.647244 -6.755491 5.443196 -23.154560 -16.767475 3.059491 -89.464328 4.763718 -4.678223 -15.787552 13.597553 -4.530434 -68.128196 -3.822289 -2.265021 2.946649 -5.430140 -6.604369 7.346632 7.699000 -38.084266 -29.993399 -19.365681 38.358466 -11.609577 15.704103 14.851497 7.198099 -0.616132 -4.296494 -2.017959 37.331823 1.060034 16.584422 -27.407571 34.533078 -16.584131 2.741227 -29.531575 1.783778 -0.317450 -0.989648 0.124229
-58.687508 81.547668 160.593028 -146.633840 -6.329283 6.217888 -1.618545 13.242349 0.875564 -0.584846 5.896724 0.571032 -0.584846 5.896724 0.571032 -0.443773 4.422006 0.433556 -14.142303 11.126756 4.139358 -28.807484 -13.066221 13.826312 3.115351 8.479512 3.093435 -26.310977 -65.555289 77.009615 30.594826 -3.501093 2.942071 -6.548351 5.695107 -23.436879 -16.960587 3.015521 -89.360721 4.817063 -4.800034 -15.835492 13.618791 -4.305418 -68.590558 -4.253474 -1.962778 2.924823 -5.483117 -6.593289 7.164620 9.096100 -37.941789 -31.521352 -21.782097 38.812652 -11.786726 16.660781 15.749628 7.501776 -0.370782 -4.139373 -2.021774 36.878132 1.236893 16.848614 -26.916115 34.335228 -16.377961 2.770780 -29.465329 1.652877 -0.380704 -0.934424 0.052535
-58.734743 81.571642 160.403428 -146.381314 -6.087542 6.027744 -1.906889 13.331146 1.034347 -0.512656 5.738502 0.652558 -0.512656 5.738502 0.652558 -0.390316 4.303339 0.493837 -14.205452 11.080481 4.010744 -28.888425 -13.170823 13.622800 3.033147 8.430899 3.076156 -25.952542 -64.999883 76.737078 31.155548 -3.601692 2.824946 -6.361530 5.659953 -23.576532 -17.148403 3.011848 -89.275828 4.788954 -4.843043 -15.848705 13.837682 -4.131010 -69.137739 -4.867265 -1.074994 2.972671 -5.558935 -6.558789 6.912025 8.481734 -38.313804 -31.923643 -22.359406 38.697573 -11.484314 17.501511 15.702399 7.789315 -0.083027 -3.227382 -2.068183 36.512365 1.227464 16.885005 -26.461908 34.008494 -16.088860 2.831923 -29.442471 1.510612 -0.536358 -0.788508 -0.048731
-58.800063 81.608776 160.168216 -146.099732 -5.641773 5.791939 -2.030996 13.266230 1.286008 -0.479291 5.514749 0.742954 -0.479291 5.514749 0.742954 -0.365913 4.135490 0.561122 -14.262408 11.069639 3.860786 -28.939691 -13.219003 13.366444 2.961045 8.454480 3.078713 -25.118289 -64.545554 76.144492 31.513453 -3.521759 2.260523 -6.181338 5.611225 -23.660367 -17.340845 2.917253 -89.108878 4.750648 -4.870160 -15.882230 14.028478 -3.880528 -69.651136 -5.612223 0.075027 3.057608 -5.678991 -6.492242 6.567925 6.122283 -38.891406 -31.021108 -21.237404 38.023393 -10.573454 17.816912 14.354837 7.962705 0.253276 -1.434250 -2.176441 36.378607 1.049884 16.859611 -26.281094 33.566319 -15.767971 2.952833 -29.461454 1.325580 -0.676036 -0.590474 -0.137445
-58.898064 81.683185 159.866494 -145.750387 -5.372569 5.583338 -2.071070 13.083016 1.553138 -0.499835 5.354092 0.830569 -0.499835 5.354092 0.830569 -0.381899 4.014903 0.626863 -14.325556 11.078549 3.704180 -28.994692 -13.231722 13.094072 2.907474 8.575917 3.085004 -24.223810 -64.280573 75.401588 31.634977 -3.347026 1.533212 -5.953769 5.571521 -23.754469 -17.556416 2.830900 -88.878488 4.745792 -4.816392 -15.942900 14.021969 -3.602109 -70.084660 -6.456464 1.175163 3.101787 -5.876956 -6.442142 6.223824 2.474531 -39.079359 -29.093937 -18.862445 36.769809 -9.229632 17.241231 12.180550 8.053875 0.505780 0.744088 -2.314700 36.344667 1.034289 16.927802 -26.335872 33.031926 -15.407405 3.131021 -29.307546 1.087774 -0.774498 -0.540497 -0.214630
-58.990384 81.786944 159.517663 -145.602399 -5.072434 5.390824 -1.800891 12.539851 1.841302 -0.554514 5.300627 0.902573 -0.554514 5.300627 0.902573 -0.423438 3.974666 0.681268 -14.400467 11.091138 3.566606 -29.078419 -13.229374 12.860659 2.837409 8.742442 3.066138 -24.111013 -64.128068 75.158780 31.605864 -3.033230 1.030749 -5.688306 5.614168 -23.954777 -17.723469 2.758918 -88.746541 4.739641 -4.696819 -15.994386 13.924803 -3.324704 -70.407915 -7.486476 2.062230 3.040232 -6.084892 -6.412516 5.942504 -1.801834 -38.905518 -26.480578 -15.762803 34.783156 -7.520662 16.442656 9.658723 7.902357 0.518521 2.991022 -2.332392 36.619794 0.994376 17.027871 -26.467250 32.501399 -14.994305 3.203478 -29.011794 0.823418 -0.785714 -0.641825 -0.270173
-59.013537 81.872389 159.148317 -145.826523 -4.248951 5.100354 -1.086851 11.479865 2.240349 -0.607581 5.250191 0.961222 -0.607581 5.250191 0.961222 -0.463646 3.936705 0.725644 -14.478723 11.110548 3.453075 -29.176184 -13.207020 12.671528 2.783481 8.924834 3.020597 -25.174747 -64.053335 75.867172 31.526257 -2.360501 0.736555 -5.459764 5.677005 -24.138022 -17.744937 2.648777 -88.777135 4.707880 -4.606729 -16.032962 13.942312 -3.007640 -70.640566 -8.738737 2.806709 2.911683 -6.260158 -6.422463 5.670643 -6.022355 -38.751553 -23.498916 -14.271633 31.648243 -6.454232 17.664193 9.592865 4.105632 0.410270 3.481040 0.555882 37.369349 0.456112 16.983920 -26.482860 32.037860 -14.475584 3.110270 -28.749301 0.528776 -0.793936 -0.725109 -0.339879
-59.128760 81.920764 158.519991 -144.413146 -4.486680 4.649120 -1.844415 11.710122 2.710290 -0.741536 5.089065 0.993070 -0.741536 5.089065 0.993070 -0.564076 3.815613 0.750503 -14.544235 11.115549 3.407967 -29.280741 -13.194494 12.610018 2.841808 8.700534 3.129698 -26.250634 -63.811779 76.346858 31.315849 -1.575034 0.543653 -5.248847 5.740732 -24.283006 -17.581230 2.488917 -88.939603 4.717955 -4.629353 -16.031790 13.983425 -2.730165 -70.804251 -10.095165 3.435953 2.703740 -6.409858 -6.461726 5.425268 -10.245854 -37.488193 -21.637156 -15.563547 32.087739 -7.373008 19.461000 5.878739 1.762971 0.514077 4.335212 1.647539 36.459205 0.552406 17.550724 -26.190780 31.701650 -13.726816 2.697436 -28.555804 0.184215 -0.829274 -0.731933 -0.431137
-59.180376 81.944578 158.344824 -144.570073 -2.352606 5.492337 -0.762092 9.899750 2.029993 -0.927758 4.882800 1.003084 -0.927758 4.882800 1.003084 -0.703430 3.660600 0.759287 -14.635176 11.100486 3.440561 -29.469320 -13.189729 12.709358 2.728739 8.137369 3.340107 -27.206182 -63.541392 76.697512 30.918575 -0.719828 0.415054 -5.088001 5.844449 -24.310758 -17.280177 2.252270 -89.077855 4.686453 -4.918540 -16.014070 13.950668 -2.419358 -70.717641 -11.495530 3.923933 2.397744 -6.526436 -6.478640 5.159707 -11.243819 -38.761227 -20.816616 -12.836014 29.167032 -8.122185 19.770011 7.292451 3.869160 -0.934338 3.441193 1.409119 37.436861 -0.497808 15.727904 -26.074025 31.345951 -12.822000 1.553395 -28.053844 -0.151249 -0.153435 -0.964489 -0.216539
